<svg width="79" height="47" viewBox="0 0 79 47" fill="none" xmlns="http://www.w3.org/2000/svg">
<ellipse cx="39.5634" cy="23.868" rx="36.2256" ry="14.2068" transform="rotate(-14.6954 39.5634 23.868)" stroke="black" stroke-opacity="0.32"/>
<path d="M16.3788 23.2586L20.7733 27.6268C21.494 28.3475 22.1093 28.8397 22.619 29.1033C23.1288 29.3611 23.6385 29.5076 24.1483 29.5428V29.868H18.4794V29.5428C18.8192 29.5428 19.0624 29.4871 19.2089 29.3758C19.3612 29.2586 19.4374 29.1297 19.4374 28.9891C19.4374 28.8484 19.4081 28.7225 19.3495 28.6111C19.2968 28.4998 19.1151 28.2918 18.8046 27.9871L14.6913 23.9178V27.7586C14.6913 28.3621 14.7294 28.7606 14.8055 28.9539C14.8641 29.1004 14.9872 29.2264 15.1747 29.3318C15.4266 29.4725 15.6932 29.5428 15.9745 29.5428H16.3788V29.868H11.2987V29.5428H11.7206C12.2128 29.5428 12.5702 29.3992 12.7928 29.1121C12.9335 28.9246 13.0038 28.4734 13.0038 27.7586V20.0594C13.0038 19.4559 12.9657 19.0545 12.8895 18.8553C12.8309 18.7147 12.7108 18.5916 12.5292 18.4861C12.2714 18.3455 12.0018 18.2752 11.7206 18.2752H11.2987V17.95H16.3788V18.2752H15.9745C15.6991 18.2752 15.4325 18.3426 15.1747 18.4774C14.993 18.5711 14.8671 18.7117 14.7968 18.8992C14.7264 19.0867 14.6913 19.4734 14.6913 20.0594V23.7068C14.8085 23.5955 15.2098 23.2234 15.8954 22.5906C17.6356 20.9969 18.6874 19.9334 19.0507 19.4002C19.2089 19.1658 19.288 18.9608 19.288 18.785C19.288 18.6502 19.2264 18.533 19.1034 18.4334C18.9803 18.3279 18.7723 18.2752 18.4794 18.2752H18.2069V17.95H22.5839V18.2752C22.326 18.2811 22.0917 18.3162 21.8807 18.3807C21.6698 18.4451 21.412 18.5711 21.1073 18.7586C20.8026 18.9402 20.4276 19.2361 19.9823 19.6463C19.8534 19.7635 19.2587 20.3641 18.1981 21.4481L16.3788 23.2586ZM28.5077 21.5799C29.7264 21.5799 30.705 22.0428 31.4432 22.9686C32.0702 23.7596 32.3837 24.6678 32.3837 25.6932C32.3837 26.4139 32.2108 27.1434 31.8651 27.8817C31.5194 28.6199 31.0419 29.1766 30.4325 29.5516C29.829 29.9266 29.1552 30.1141 28.411 30.1141C27.1981 30.1141 26.2343 29.6307 25.5194 28.6639C24.9159 27.8494 24.6141 26.9354 24.6141 25.9217C24.6141 25.1834 24.7958 24.451 25.1591 23.7244C25.5282 22.992 26.0116 22.4529 26.6093 22.1072C27.2069 21.7557 27.8397 21.5799 28.5077 21.5799ZM28.2352 22.1512C27.9247 22.1512 27.6112 22.2449 27.2948 22.4324C26.9843 22.6141 26.7323 22.9363 26.5389 23.3992C26.3456 23.8621 26.2489 24.4568 26.2489 25.1834C26.2489 26.3553 26.4803 27.366 26.9432 28.2156C27.412 29.0652 28.0272 29.4901 28.7889 29.4901C29.3573 29.4901 29.826 29.2557 30.1952 28.7869C30.5643 28.3182 30.7489 27.5125 30.7489 26.3699C30.7489 24.9402 30.4413 23.8152 29.826 22.9949C29.41 22.4324 28.8798 22.1512 28.2352 22.1512ZM35.9169 23.285C36.8602 22.1483 37.7596 21.5799 38.6151 21.5799C39.0546 21.5799 39.4325 21.6912 39.7489 21.9139C40.0653 22.1307 40.3173 22.491 40.5048 22.9949C40.6337 23.3465 40.6981 23.8856 40.6981 24.6121V28.0486C40.6981 28.5584 40.7391 28.9041 40.8212 29.0858C40.8856 29.2322 40.9882 29.3465 41.1288 29.4285C41.2753 29.5106 41.5419 29.5516 41.9286 29.5516V29.868H37.9471V29.5516H38.1141C38.4891 29.5516 38.7499 29.4959 38.8964 29.3846C39.0487 29.2674 39.1542 29.0975 39.2128 28.8748C39.2362 28.7869 39.2479 28.5115 39.2479 28.0486V24.7527C39.2479 24.0203 39.1512 23.4901 38.9579 23.1619C38.7704 22.8279 38.451 22.6609 37.9999 22.6609C37.3026 22.6609 36.6083 23.0418 35.9169 23.8035V28.0486C35.9169 28.5936 35.9491 28.9305 36.0135 29.0594C36.0956 29.2293 36.2069 29.3553 36.3475 29.4373C36.494 29.5135 36.787 29.5516 37.2264 29.5516V29.868H33.245V29.5516H33.4208C33.8309 29.5516 34.1063 29.449 34.2469 29.244C34.3934 29.033 34.4667 28.6346 34.4667 28.0486V25.0604C34.4667 24.0936 34.4432 23.5047 34.3964 23.2938C34.3553 23.0828 34.288 22.9393 34.1942 22.8631C34.1063 22.7869 33.9862 22.7488 33.8339 22.7488C33.6698 22.7488 33.4735 22.7928 33.245 22.8807L33.1132 22.5643L35.5389 21.5799H35.9169V23.285ZM44.9081 19.1717V21.8172H46.7889V22.4324H44.9081V27.6531C44.9081 28.1746 44.9813 28.5262 45.1278 28.7078C45.2802 28.8895 45.4735 28.9803 45.7079 28.9803C45.9012 28.9803 46.0887 28.9217 46.2704 28.8045C46.452 28.6815 46.5927 28.5027 46.6923 28.2684H47.035C46.83 28.8426 46.5399 29.2762 46.1649 29.5692C45.7899 29.8563 45.4032 29.9998 45.0048 29.9998C44.7352 29.9998 44.4716 29.9266 44.2137 29.7801C43.9559 29.6277 43.7655 29.4139 43.6425 29.1385C43.5194 28.8572 43.4579 28.4266 43.4579 27.8465V22.4324H42.1835V22.1424C42.5057 22.0135 42.8339 21.7967 43.1678 21.492C43.5077 21.1815 43.8094 20.8152 44.0731 20.3934C44.2079 20.1707 44.3954 19.7635 44.6356 19.1717H44.9081ZM51.5175 21.5799C52.7362 21.5799 53.7147 22.0428 54.453 22.9686C55.08 23.7596 55.3934 24.6678 55.3934 25.6932C55.3934 26.4139 55.2206 27.1434 54.8749 27.8817C54.5292 28.6199 54.0516 29.1766 53.4423 29.5516C52.8387 29.9266 52.1649 30.1141 51.4208 30.1141C50.2079 30.1141 49.244 29.6307 48.5292 28.6639C47.9257 27.8494 47.6239 26.9354 47.6239 25.9217C47.6239 25.1834 47.8055 24.451 48.1688 23.7244C48.538 22.992 49.0214 22.4529 49.619 22.1072C50.2167 21.7557 50.8495 21.5799 51.5175 21.5799ZM51.245 22.1512C50.9344 22.1512 50.621 22.2449 50.3046 22.4324C49.994 22.6141 49.7421 22.9363 49.5487 23.3992C49.3553 23.8621 49.2587 24.4568 49.2587 25.1834C49.2587 26.3553 49.4901 27.366 49.953 28.2156C50.4218 29.0652 51.037 29.4901 51.7987 29.4901C52.3671 29.4901 52.8358 29.2557 53.205 28.7869C53.5741 28.3182 53.7587 27.5125 53.7587 26.3699C53.7587 24.9402 53.451 23.8152 52.8358 22.9949C52.4198 22.4324 51.8895 22.1512 51.245 22.1512ZM58.9354 21.5799V23.3904C59.6093 22.1834 60.3007 21.5799 61.0096 21.5799C61.3319 21.5799 61.5985 21.6795 61.8094 21.8787C62.0204 22.0721 62.1259 22.2977 62.1259 22.5555C62.1259 22.784 62.0497 22.9774 61.8973 23.1356C61.745 23.2938 61.5634 23.3729 61.3524 23.3729C61.1473 23.3729 60.9159 23.2733 60.6581 23.074C60.4061 22.869 60.2186 22.7664 60.0956 22.7664C59.9901 22.7664 59.8759 22.825 59.7528 22.9422C59.4891 23.1824 59.2167 23.5779 58.9354 24.1287V27.9871C58.9354 28.4324 58.9911 28.7693 59.1024 28.9979C59.1786 29.1561 59.3134 29.2879 59.5067 29.3934C59.7001 29.4988 59.9784 29.5516 60.3417 29.5516V29.868H56.2196V29.5516C56.6298 29.5516 56.9344 29.4871 57.1337 29.3582C57.2802 29.2645 57.3827 29.1151 57.4413 28.91C57.4706 28.8104 57.4852 28.5262 57.4852 28.0574V24.9373C57.4852 23.9998 57.4647 23.4432 57.4237 23.2674C57.3885 23.0858 57.3182 22.9539 57.2128 22.8719C57.1132 22.7899 56.9872 22.7488 56.8348 22.7488C56.6532 22.7488 56.4481 22.7928 56.2196 22.8807L56.1317 22.5643L58.5663 21.5799H58.9354ZM67.1356 28.7078C66.3094 29.3465 65.7909 29.7156 65.58 29.8152C65.2635 29.9617 64.9266 30.035 64.5692 30.035C64.0126 30.035 63.5526 29.8445 63.1893 29.4637C62.8319 29.0828 62.6532 28.5818 62.6532 27.9608C62.6532 27.5682 62.7411 27.2283 62.9169 26.9412C63.1571 26.5428 63.5731 26.1678 64.1649 25.8162C64.7626 25.4647 65.7528 25.0369 67.1356 24.533V24.2166C67.1356 23.4139 67.0067 22.8631 66.7489 22.5643C66.4969 22.2654 66.1278 22.116 65.6415 22.116C65.2723 22.116 64.9794 22.2156 64.7626 22.4149C64.5399 22.6141 64.4286 22.8426 64.4286 23.1004L64.4462 23.6102C64.4462 23.8797 64.3759 24.0877 64.2352 24.2342C64.1005 24.3807 63.9218 24.4539 63.6991 24.4539C63.4823 24.4539 63.3036 24.3777 63.163 24.2254C63.0282 24.0731 62.9608 23.8651 62.9608 23.6014C62.9608 23.0975 63.2186 22.6346 63.7343 22.2127C64.2499 21.7908 64.9735 21.5799 65.9052 21.5799C66.62 21.5799 67.2059 21.7 67.663 21.9402C68.0087 22.1219 68.2635 22.4061 68.4276 22.7928C68.5331 23.0447 68.5858 23.5604 68.5858 24.3397V27.0731C68.5858 27.8406 68.6005 28.3123 68.6298 28.4881C68.6591 28.658 68.7059 28.7723 68.7704 28.8309C68.8407 28.8895 68.9198 28.9188 69.0077 28.9188C69.1014 28.9188 69.1835 28.8983 69.2538 28.8572C69.3768 28.7811 69.6141 28.5672 69.9657 28.2156V28.7078C69.3094 29.5867 68.6825 30.0262 68.0848 30.0262C67.7977 30.0262 67.5692 29.9266 67.3993 29.7274C67.2294 29.5281 67.1415 29.1883 67.1356 28.7078ZM67.1356 28.1365V25.0692C66.2509 25.4207 65.6796 25.6697 65.4218 25.8162C64.9589 26.074 64.6278 26.3436 64.4286 26.6248C64.2294 26.9061 64.1298 27.2137 64.1298 27.5477C64.1298 27.9695 64.2557 28.3211 64.5077 28.6024C64.7596 28.8777 65.0497 29.0154 65.3778 29.0154C65.8231 29.0154 66.4091 28.7225 67.1356 28.1365Z" fill="black"/>
</svg>
