<svg width="179" height="148" viewBox="0 0 179 148" fill="none" xmlns="http://www.w3.org/2000/svg">
<path d="M1 25.6C1 21.1031 1.00078 17.7905 1.21467 15.1727C1.4276 12.5665 1.84676 10.737 2.6349 9.19014C4.073 6.36771 6.36771 4.073 9.19014 2.6349C10.737 1.84676 12.5665 1.4276 15.1727 1.21467C17.7905 1.00078 21.1031 1 25.6 1H117.6C122.097 1 125.409 1.00078 128.027 1.21467C130.634 1.4276 132.463 1.84675 134.01 2.6349C136.832 4.073 139.127 6.36771 140.565 9.19014C141.353 10.737 141.772 12.5665 141.985 15.1727C142.199 17.7905 142.2 21.1031 142.2 25.6V65.7357C142.2 70.2326 142.199 73.5451 141.985 76.163C141.772 78.7692 141.353 80.5987 140.565 82.1455C139.127 84.968 136.832 87.2627 134.01 88.7008C132.463 89.4889 130.634 89.9081 128.027 90.121C125.409 90.3349 122.097 90.3357 117.6 90.3357H93.7577H93.7109C93.1352 90.3356 92.7951 90.3356 92.5002 90.355C87.9942 90.6509 84.4051 94.24 84.1092 98.746C84.0898 99.0409 84.0898 99.381 84.0899 99.9567V100.003V100.05C84.0898 100.626 84.0898 100.966 84.1092 101.261C84.4051 105.767 87.9942 109.356 92.5002 109.652C92.7951 109.671 93.1352 109.671 93.7109 109.671H93.7577H159.336C162.784 109.671 164.375 109.675 165.684 109.913C171.83 111.031 176.64 115.841 177.758 121.988C177.996 123.296 178 124.887 178 128.336C178 131.784 177.996 133.375 177.758 134.684C176.64 140.83 171.83 145.64 165.684 146.758C164.375 146.996 162.784 147 159.336 147H25.6C21.1031 147 17.7905 146.999 15.1727 146.785C12.5665 146.572 10.737 146.153 9.19014 145.365C6.36771 143.927 4.073 141.632 2.6349 138.81C1.84676 137.263 1.4276 135.434 1.21467 132.827C1.00078 130.209 1 126.897 1 122.4V25.6Z" stroke="white" stroke-opacity="0.32" stroke-width="2"/>
</svg>
