<svg xmlns="http://www.w3.org/2000/svg" width="345" height="286" viewBox="0 0 345 286" fill="none">
<path d="M1 38.4C1 31.6629 1.00078 26.6702 1.32366 22.7183C1.64559 18.7781 2.28273 15.9607 3.50685 13.5582C5.71194 9.23049 9.23049 5.71194 13.5582 3.50685C15.9607 2.28273 18.7781 1.64559 22.7183 1.32366C26.6702 1.00078 31.6629 1 38.4 1H237.6C244.337 1 249.33 1.00078 253.282 1.32366C257.222 1.64559 260.039 2.28273 262.442 3.50685C266.77 5.71194 270.288 9.23049 272.493 13.5582C273.717 15.9607 274.354 18.7781 274.676 22.7183C274.999 26.6702 275 31.6629 275 38.4V138.1C275 144.837 274.999 149.83 274.676 153.782C274.354 157.722 273.717 160.539 272.493 162.942C270.288 167.27 266.77 170.788 262.442 172.993C260.039 174.217 257.222 174.854 253.282 175.176C249.33 175.499 244.337 175.5 237.6 175.5H180H179.954C177.193 175.5 175.059 175.5 173.351 175.64C171.621 175.781 170.24 176.07 169.006 176.699C166.936 177.754 165.254 179.436 164.199 181.506C163.57 182.74 163.281 184.121 163.14 185.851C163 187.559 163 189.693 163 192.454V192.5V194V194.046C163 196.807 163 198.941 163.14 200.649C163.281 202.379 163.57 203.76 164.199 204.994C165.254 207.064 166.936 208.746 169.006 209.801C170.24 210.43 171.621 210.719 173.351 210.86C175.059 211 177.193 211 179.954 211H180H307C313.548 211 318.401 211.001 322.245 211.306C326.079 211.611 328.824 212.214 331.173 213.372C335.714 215.611 339.389 219.286 341.628 223.827C342.786 226.176 343.389 228.921 343.694 232.755C343.999 236.599 344 241.452 344 248C344 254.548 343.999 259.401 343.694 263.245C343.389 267.079 342.786 269.824 341.628 272.173C339.389 276.714 335.714 280.389 331.173 282.628C328.824 283.786 326.079 284.389 322.245 284.694C318.401 284.999 313.548 285 307 285H38.4C31.6629 285 26.6702 284.999 22.7183 284.676C18.7781 284.354 15.9607 283.717 13.5582 282.493C9.23049 280.288 5.71194 276.77 3.50685 272.442C2.28273 270.039 1.64559 267.222 1.32366 263.282C1.00078 259.33 1 254.337 1 247.6V38.4Z" stroke="white" stroke-opacity="0.32" stroke-width="2"/>
</svg>